/* XPM */
static char *_3ad09677a5c4d5be8380ed80306a27a[] = {
/* columns rows colors chars-per-pixel */
"64 64 140 2 ",
"   c #002300240024",
".  c #0AD80A0A0606",
"X  c #070707070808",
"o  c #070708080808",
"O  c #0B590B8A0B73",
"+  c #10100C0C0687",
"@  c #10900F0F098A",
"#  c #12BD10660A60",
"$  c #1A1A17170E0E",
"%  c #1B1B18180F0F",
"&  c #0E280F0F1010",
"*  c #0F0F10101010",
"=  c #133F135B1383",
"-  c #1B1B1A701212",
";  c #171717171818",
":  c #1B631B6A1B6E",
">  c #212119190E0E",
",  c #24CF2278166C",
"<  c #28F6242415E3",
"1  c #272726261A1A",
"2  c #2C2C28281A1A",
"3  c #33B42CAD1B9C",
"4  c #3B3B2F2F1B1B",
"5  c #1E1E1F1F2020",
"6  c #1F1F20202121",
"7  c #226E229822C2",
"8  c #25A627272828",
"9  c #272729292A2A",
"0  c #2A2A2AAB2AEB",
"q  c #3C3C34342020",
"w  c #3B3B3A3A2929",
"e  c #2EAF30303030",
"r  c #3333353535B6",
"t  c #398F3AE53B91",
"y  c #42C339BA23A4",
"u  c #40403E3E2C2C",
"i  c #5A5A44C524A5",
"p  c #545445C62929",
"a  c #5D5D4E4E2E2E",
"s  c #46C7454530B1",
"d  c #54544D4D3131",
"f  c #535350503636",
"g  c #5D5D56563737",
"h  c #67675B5B3737",
"j  c #6C6C5A5A3636",
"k  c #707058583131",
"l  c #6E6E60603B3B",
"z  c #7B7B62623838",
"x  c #3E3E3F3F4040",
"c  c #414143434444",
"v  c #45C647474848",
"b  c #470748884989",
"n  c #4BCC4D4D4E4E",
"m  c #559E561F5668",
"M  c #54D557575858",
"N  c #56D759595A5A",
"B  c #59595B285C5C",
"V  c #636361614646",
"C  c #6E6E64644040",
"Z  c #6F6F69694444",
"A  c #797974744DCE",
"S  c #5E5E6060620C",
"D  c #62A264246525",
"F  c #666667676868",
"G  c #65E668E96A6A",
"H  c #6CC26DC36DC3",
"J  c #6C6C6F6F7070",
"K  c #6EEF70F171F2",
"L  c #727273F474CA",
"P  c #75CB777778CE",
"I  c #7777792379CF",
"U  c #78DF7B7B7D16",
"Y  c #969672723D3D",
"T  c #92927EFF4DCE",
"R  c #9C9C81814C4C",
"E  c #9ACD88EF5588",
"W  c #93138A0A5B5B",
"Q  c #B1B18C8C4F4F",
"!  c #A32393135CDD",
"~  c #A9A994945C5C",
"^  c #BEBE9C9C5C5C",
"/  c #94948F8F6565",
"(  c #AEAEA3A36B6B",
")  c #B5B5A1A16464",
"_  c #BDBDA1A16262",
"`  c #BABAA6A66868",
"'  c #BEBEACAC6B6B",
"]  c #C0C097975555",
"[  c #C5C5A2A26060",
"{  c #D1D1ACAC6565",
"}  c #D62BB6B66F19",
"|  c #CCCCBEBE7CFD",
" . c #D6D6BDBD7676",
".. c #D959B93970F1",
"X. c #D5D5C1C17B7B",
"o. c #DD32C2C27A24",
"O. c #E0E0C5C57C7C",
"+. c #7E7E7F7F8080",
"@. c #828285058686",
"#. c #858587078989",
"$. c #85AA88888A65",
"%. c #8C1E8CB18D44",
"&. c #8F8F91919292",
"*. c #91F893FA952E",
"=. c #959597979898",
"-. c #969698989999",
";. c #9A3A9C7C9D7D",
":. c #9A9A9E9EA121",
">. c #9F9FA0A0A1A1",
",. c #A222A3A3A4E4",
"<. c #A6A6A7A7A8A8",
"1. c #AB2BACACADAD",
"2. c #AFAFB0B0B0B0",
"3. c #B333B434B4F4",
"4. c #B7B7B9B9BABA",
"5. c #BA64BC2DBDBD",
"6. c #C8C8BFBF8202",
"7. c #CDCDC0C08080",
"8. c #CCCCC5C58888",
"9. c #E5E5CF798484",
"0. c #E7E7D0D08585",
"q. c #E564D5D58C8C",
"w. c #E5E5DBDB9494",
"e. c #EEEEDCDC9090",
"r. c #F0F0DFDF9292",
"t. c #BF3FC0C0C141",
"y. c #C322C494C575",
"u. c #C6C6C7C7C8C8",
"i. c #C7C7C8C8C9C9",
"p. c #CA7DCAFDCB7E",
"a. c #D29FD36CD3D3",
"s. c #D4D4D7D7D9D9",
"d. c #DCDCDD87DDDD",
"f. c #D9D9DEDEE1E1",
"g. c #E2A2E3A3E423",
"h. c #E5E5E7E7E8E8",
"j. c #EA83EAEAEB51",
"k. c #F2B2F373F393",
"l. c #FF5CFF6AFF6D",
"z. c None",
/* pixels */
"z.z.z.z.z.z.z.z.z.z.z.z.z.z.z.z.z.z.z.z.z.z.z.z.z.z.z.z.z.z.z.z.z.z.z.z.z.z.z.z.z.z.z.z.z.z.z.z.z.z.z.z.z.z.z.z.z.z.z.z.z.z.z.z.",
"z.z.z.z.z.z.z.z.z.z.z.z.z.z.z.z.z.z.z.z.z.z.z.z.z.z.z.z.z.z.z.z.z.z.z.z.z.z.z.z.z.z.z.z.z.z.z.z.z.z.z.z.z.z.z.z.z.z.z.z.z.z.z.z.",
"z.z.z.z.z.z.z.z.z.z.z.z.z.z.z.z.z.z.z.z.z.z.z.z.z.z.8 : ; = * * * = = ; 5 8 z.z.z.z.z.z.z.z.z.z.z.z.z.z.z.z.z.z.z.z.z.z.z.z.z.z.",
"z.z.z.z.z.z.z.z.z.z.z.z.z.z.z.z.z.z.z.z.z.z.8 : * o                         X * : 8 z.z.z.z.z.z.z.z.z.z.z.z.z.z.z.z.z.z.z.z.z.z.",
"z.z.z.z.z.z.z.z.z.z.z.z.z.z.z.z.z.z.z.z.: * X                                     X * : z.z.z.z.z.z.z.z.z.z.z.z.z.z.z.z.z.z.z.z.",
"z.z.z.z.z.z.z.z.z.z.z.z.z.z.z.z.z.z.: o                                                 o : z.z.z.z.z.z.z.z.z.z.z.z.z.z.z.z.z.z.",
"z.z.z.z.z.z.z.z.z.z.z.z.z.z.z.z.7 o                                                         o 7 z.z.z.z.z.z.z.z.z.z.z.z.z.z.z.z.",
"z.z.z.z.z.z.z.z.z.z.z.z.z.z.0 *                             #   #                               * 0 z.z.z.z.z.z.z.z.z.z.z.z.z.z.",
"z.z.z.z.z.z.z.z.z.z.z.z.z., X                             o h d Z o                               o 7 z.z.z.z.z.z.z.z.z.z.z.z.z.",
"z.z.z.z.z.z.z.z.z.z.z.z.: X                               . T o.W .                                 X : z.z.z.z.z.z.z.z.z.z.z.z.",
"z.z.z.z.z.z.z.z.z.z.z.:                                   X l o.l X                                   X : z.z.z.z.z.z.z.z.z.z.z.",
"z.z.z.z.z.z.z.z.z.z.:                                       3 ` 2                                         ; z.z.z.z.z.z.z.z.z.z.",
"z.z.z.z.z.z.z.z.z.:                                         , ! %                                           : z.z.z.z.z.z.z.z.z.",
"z.z.z.z.z.z.z.z.7 X                                         < E #                                           X 7 z.z.z.z.z.z.z.z.",
"z.z.z.z.z.z.z.0 o                                           < E #                                             o 0 z.z.z.z.z.z.z.",
"z.z.z.z.z.z.z.=                                             , E #                                               * z.z.z.z.z.z.z.",
"z.z.z.z.z.z.: X                                             2 E #                                                 : z.z.z.z.z.z.",
"z.z.z.z.z.z.o                                               3 ~ $                                                 * z.z.z.z.z.z.",
"z.z.z.z.z.:                                                 q ) -   u 1                                             : z.z.z.z.z.",
"z.z.z.z.z.o                                                 y ' < w 8.s                                             o 0 z.z.z.z.",
"z.z.z.z.:                                                 , R ..! 7.7.;                                               : z.z.z.z.",
"z.z.z.z.*                                                 j ..o.0.e.A                                                 * z.z.z.z.",
"z.z.z.8 X                                                 p } o.0.| 1                                                 X 7 z.z.z.",
"z.z.z.:                                                   a } o.0.( .                                                   : z.z.z.",
"z.z.z.*                                                 + T ..o.0.| ,                                                   * z.z.z.",
"z.z.z.X                                                 4 [ ..O.9.q.f                                                   X 8 z.z.",
"z.z.8                                                   z { _ E X.r.W                                                     7 z.z.",
"z.z.:                                                 > Q ^ y X g q.7.=                                                   : z.z.",
"z.z.;                                                 i ] i     X A w.s                                                   ; z.z.",
"z.z.=                                               + Y k o       @ / V                                                   = z.z.",
"z.z.=                                               # i +           @ *                                                   * z.z.",
"z.z.*                                                                                                                     * z.z.",
"z.z.*                                                                                                                     * z.z.",
"z.z.*                               6 b N c &           8 m m 0 X       X 0 N M 0                                         * z.z.",
"z.z.=                           = P u.-.L i.<.7       B p.k.l.d.$.*     D a.k.l.d.F X                                     = z.z.",
"z.z.=                         = >.l.3.&   #.l.,.O   r 4.m U l.l.l.P   x 2.n I k.l.j.c                                     = z.z.",
"z.z.:                         K l.l.*.    H l.k.b   #.S   0 g.l.l.s.8 %.n   8 g.l.l.,.X                                   : z.z.",
"z.z.7 X                     * 5.l.l.1.X   F l.l.&.7 ;.;   = p.l.l.k.P *.=   = a.l.l.d.6                                 X : z.z.",
"z.z.z.o                     & y.l.l.h.b   H l.l.y.B I     * y.l.l.l.s.J     * i.l.l.k.t                                 o 7 z.z.",
"z.z.z.*                       K k.l.l.y.: P l.l.h.:.n     * 5.l.l.l.k.c     & y.l.l.l.m                                 * z.z.z.",
"z.z.z.:                       o D y.j.k.H P l.l.l.f.0     O 5.l.l.l.d.8     & y.l.l.l.m                                 ; z.z.z.",
"z.z.z.8 X                         & 0 t : I l.l.l.a.:     O 5.l.l.l.p.*     & y.l.l.l.m                                 5 z.z.z.",
"z.z.z.z.*                                 U l.l.l.5.*     O 5.l.l.l.3.o     & y.l.l.l.m                               * 7 z.z.z.",
"z.z.z.z.:                                 U l.l.l.2.X     O 5.l.l.l.,.X     & t.l.l.l.m                               : z.z.z.z.",
"z.z.z.z.0 X                               @.l.l.l.,.X     O 5.l.l.l.*.      & y.l.l.k.m                             o 7 z.z.z.z.",
"z.z.z.z.z.:                               $.l.l.l.;.      @ 5.l.l.l.&.      & y.l.l.l.m                             ; z.z.z.z.z.",
"z.z.z.z.z.0 o                             $.l.l.l.;.      & y.l.l.l.&.      & y.l.l.l.m                           o 7 z.z.z.z.z.",
"z.z.z.z.z.z.: X                           $.l.l.l.:.      * i.l.l.l.&.      & t.l.l.l.m       = X               X : z.z.z.z.z.z.",
"z.z.z.z.z.z.z.*                           $.l.l.l.;.      = i.l.l.l.&.      o 4.l.l.l.M     X G &               * 7 z.z.z.z.z.z.",
"z.z.z.z.z.z.z.8 o                         $.l.l.l.-.      * i.l.l.l.#.      X ;.l.l.l.N     ; L o             o 7 z.z.z.z.z.z.z.",
"z.z.z.z.z.z.z.z.5 X                       #.l.l.l.+.      = p.l.l.l.J         G l.l.l.S     e S             X : z.z.z.z.z.z.z.z.",
"z.z.z.z.z.z.z.z.z.:                       $.l.l.k.v       * y.l.l.j.t         8 a.l.l.P     M r             : z.z.z.z.z.z.z.z.z.",
"z.z.z.z.z.z.z.z.z.z.= X                   &.l.l.;.*       = p.l.l.&.X           B j.l.4.0 x B o           : 7 z.z.z.z.z.z.z.z.z.",
"z.z.z.z.z.z.z.z.z.z.z.=                   H p.@.:         * ;.y.P *             X b <.p.:.D =           : : z.z.z.z.z.z.z.z.z.z.",
"z.z.z.z.z.z.z.z.z.z.z.z.: X               o * X             * *                     X = =           X : : z.z.z.z.z.z.z.z.z.z.z.",
"z.z.z.z.z.z.z.z.z.z.z.z.z.: o                                                                     o : z.z.z.z.z.z.z.z.z.z.z.z.z.",
"z.z.z.z.z.z.z.z.z.z.z.z.z.z.7 * X                                                               * 7 z.z.z.z.z.z.z.z.z.z.z.z.z.z.",
"z.z.z.z.z.z.z.z.z.z.z.z.z.z.z.8 : o                                                         O : : z.z.z.z.z.z.z.z.z.z.z.z.z.z.z.",
"z.z.z.z.z.z.z.z.z.z.z.z.z.z.z.z.z.7 : o                                                 o ; , z.z.z.z.z.z.z.z.z.z.z.z.z.z.z.z.z.",
"z.z.z.z.z.z.z.z.z.z.z.z.z.z.z.z.z.z.z.7 : * X                                       * : 7 z.z.z.z.z.z.z.z.z.z.z.z.z.z.z.z.z.z.z.",
"z.z.z.z.z.z.z.z.z.z.z.z.z.z.z.z.z.z.z.z.z.7 5 : * o                         o * : : 5 z.z.z.z.z.z.z.z.z.z.z.z.z.z.z.z.z.z.z.z.z.",
"z.z.z.z.z.z.z.z.z.z.z.z.z.z.z.z.z.z.z.z.z.z.z.z.: 7 : : = = * * * * = = : : 7 : z.z.z.z.z.z.z.z.z.z.z.z.z.z.z.z.z.z.z.z.z.z.z.z.",
"z.z.z.z.z.z.z.z.z.z.z.z.z.z.z.z.z.z.z.z.z.z.z.z.z.z.z.z.z.z.z.z.z.z.z.z.z.z.z.z.z.z.z.z.z.z.z.z.z.z.z.z.z.z.z.z.z.z.z.z.z.z.z.z.",
"z.z.z.z.z.z.z.z.z.z.z.z.z.z.z.z.z.z.z.z.z.z.z.z.z.z.z.z.z.z.z.z.z.z.z.z.z.z.z.z.z.z.z.z.z.z.z.z.z.z.z.z.z.z.z.z.z.z.z.z.z.z.z.z."
};
