/* XPM */
static char *a8e0e099efe64f18801a4766c7fc382e[] = {
/* columns rows colors chars-per-pixel */
"32 32 172 2 ",
"   c black",
".  c #000000000101",
"X  c #010101010101",
"o  c #020202020101",
"O  c #020202020202",
"+  c #030303030202",
"@  c gray1",
"#  c #050504040303",
"$  c #040404040404",
"%  c #040405050505",
"&  c gray2",
"*  c #070707070404",
"=  c #060606060606",
"-  c #070707070707",
";  c #0B0B08080404",
":  c #0A0A09090505",
">  c #0D0D0C0C0707",
",  c gray3",
"<  c #090909090909",
"1  c #090909090A0A",
"2  c #09090A0A0A0A",
"3  c gray4",
"4  c #0A0A0B0B0B0B",
"5  c #0E0E0D0D0A0A",
"6  c #0B0B0B0B0C0C",
"7  c #0B0B0C0C0C0C",
"8  c #0C0C0C0C0C0C",
"9  c gray5",
"0  c #0E0E0F0F0F0F",
"q  c #141410100909",
"w  c #171715150D0D",
"e  c #1B1B15150B0B",
"r  c #1A1A17170E0E",
"t  c #1A1A17170F0F",
"y  c #101010101010",
"u  c #101010101111",
"i  c #101011111111",
"p  c #111111111111",
"a  c #111112121212",
"s  c gray7",
"d  c #121212121313",
"f  c #131313131313",
"g  c #131314141414",
"h  c gray8",
"j  c #151515151515",
"k  c #151516161616",
"l  c #161616161616",
"z  c gray9",
"x  c #1C1C1B1B1212",
"c  c #181819191919",
"v  c #191919191919",
"b  c #1D1D1E1E1E1E",
"n  c #1E1E1E1E1F1F",
"m  c #292923231515",
"M  c #2A2A28281B1B",
"N  c #393930301D1D",
"B  c #222222222323",
"V  c #242425252525",
"C  c #252525252626",
"Z  c #2C2C2D2D2D2D",
"A  c #2C2C2D2D2E2E",
"S  c #343431312121",
"D  c #373732322020",
"F  c #2F2F2F2F3030",
"G  c #2F2F31313131",
"H  c #313132323333",
"J  c #353535353636",
"K  c #373738383838",
"L  c #39393A3A3B3B",
"P  c #3A3A3A3A3A3A",
"I  c #3E3E3E3E3E3E",
"U  c #414132321B1B",
"Y  c #43433E3E2828",
"T  c #44443F3F2A2A",
"R  c #515148482D2D",
"E  c #55554C4C2F2F",
"W  c #5F5F4B4B2A2A",
"Q  c #4D4D4B4B3434",
"!  c #59594E4E3131",
"~  c #5B5B57573B3B",
"^  c #6A6A58583434",
"/  c #6C6C60603C3C",
"(  c #747463633D3D",
")  c #444444444545",
"_  c #474748484949",
"`  c #48484A4A4A4A",
"'  c #4B4B4C4C4D4D",
"]  c #4C4C4D4D4E4E",
"[  c #4C4C4E4E4F4F",
"{  c #4D4D4E4E4F4F",
"}  c gray31",
"|  c #505050505050",
" . c #515152525353",
".. c #515153535454",
"X. c #525253535454",
"o. c #535353535454",
"O. c #545455555555",
"+. c #565656565656",
"@. c #575758585959",
"#. c #59595B5B5B5B",
"$. c #5D5D5E5E5F5F",
"%. c #646460604040",
"&. c #7B7B6D6D4444",
"*. c #70706C6C4B4B",
"=. c #5F5F5F5F6060",
"-. c #676768686969",
";. c #6B6B6C6C6D6D",
":. c #6B6B6D6D6E6E",
">. c #6D6D6E6E6F6F",
",. c #6E6E70707171",
"<. c #727274747575",
"1. c #757576767777",
"2. c #79797A7A7A7A",
"3. c #79797B7B7C7C",
"4. c #7C7C7D7D7D7D",
"5. c #7D7D7D7D7E7E",
"6. c #818172724747",
"7. c #9C9C7F7F4949",
"8. c #B9B9A2A26464",
"9. c #B4B4A7A76D6D",
"0. c #C8C8B7B77676",
"q. c #C8C8B9B97878",
"w. c #D6D6B9B97373",
"e. c #DDDDBFBF7676",
"r. c #D3D3C1C17D7D",
"t. c #818181818282",
"y. c #828283838383",
"u. c #838384848585",
"i. c #8D8D8E8E8F8F",
"p. c #969698989999",
"a. c #989898989999",
"s. c #989899999A9A",
"d. c #A2A2A2A2A2A2",
"f. c #A2A2A3A3A3A3",
"g. c #A3A3A3A3A4A4",
"h. c #ACACAFAFB0B0",
"j. c #AFAFB0B0B0B0",
"k. c #B1B1B2B2B2B2",
"l. c #B1B1B2B2B3B3",
"z. c #B2B2B3B3B3B3",
"x. c #BBBBBCBCBCBC",
"c. c #BDBDBEBEBEBE",
"v. c #C0C0C1C1C1C1",
"b. c #C1C1C2C2C3C3",
"n. c #C3C3C4C4C5C5",
"m. c #C5C5C6C6C7C7",
"M. c #CECECFCFCFCF",
"N. c #CFCFD0D0D0D0",
"B. c #CFCFD0D0D1D1",
"V. c #D2D2D2D2D3D3",
"C. c gray83",
"Z. c #D5D5D5D5D5D5",
"A. c #D7D7D7D7D7D7",
"S. c #DADADBDBDCDC",
"D. c gray88",
"F. c #E2E2E2E2E3E3",
"G. c #E4E4E5E5E5E5",
"H. c #E6E6E7E7E7E7",
"J. c #E9E9EAEAEAEA",
"K. c #EFEFEFEFEFEF",
"L. c gray96",
"P. c #F6F6F7F7F7F7",
"I. c gray97",
"U. c #F7F7F8F8F8F8",
"Y. c #FBFBFBFBFBFB",
"T. c #FDFDFDFDFDFD",
"R. c #FDFDFDFDFEFE",
"E. c #FDFDFEFEFEFE",
"W. c #FEFEFEFEFEFE",
"Q. c #FEFEFEFEFFFF",
"!. c gray100",
"~. c None",
/* pixels */
"~.~.~.~.~.~.~.~.~.~.~.~.~.~.~.~.~.~.~.~.~.~.~.~.~.~.~.~.~.~.~.~.",
"~.~.~.~.~.~.~.~.~.~.~.~.h 8 4 4 4 4 8 s ~.~.~.~.~.~.~.~.~.~.~.~.",
"~.~.~.~.~.~.~.~.~.z 3 @                 $ 8 h ~.~.~.~.~.~.~.~.~.",
"~.~.~.~.~.~.~.~.3 @         @ ; :             4 ~.~.~.~.~.~.~.~.",
"~.~.~.~.~.~.h $             > &.Y               $ h ~.~.~.~.~.~.",
"~.~.~.~.~.s                 # 6.D                   h ~.~.~.~.~.",
"~.~.~.~.h                     E t                     h ~.~.~.~.",
"~.~.~.~.$                     R w                     $ ~.~.~.~.",
"~.~.~.8                       ! t                       8 ~.~.~.",
"~.~.c                       @ / T Q                       h ~.~.",
"~.~.4                       m 8.q.~                       8 ~.~.",
"~.~.@                       U w.0.x                       $ ~.~.",
"~.f                         ^ r.r.M                         s ~.",
"~.8                       q 7.( 9.%.                        8 ~.",
"~.4                       U W   D *.+                       8 ~.",
"~.4                       e ;     5                         4 ~.",
"~.4             $ V A 8   $ A A ,   c K h                   4 ~.",
"~.4           4 u.3.,.i.4 ` p.F.5.n 1.m.x.b                 4 ~.",
"~.8           +.U.#.I G.@...V D.G.<.B 5.!.;.                3 ~.",
"~.s           o.U.z.+.L.h.G u V.!.p.  >.!.s.                s ~.",
"~.~.$         4 ..y.>.U.S.b s B.!.2.  ;.!.f.              @ h ~.",
"~.~.4               _ Y.M.u s B.!.=.  ;.!.f.              4 ~.~.",
"~.~.h               ' !.n.4 s M.!...  ;.!.f.            @ f ~.~.",
"~.~.~.3             ] T.b.4 h A.!.}   ;.!.f.  - @       4 ~.~.~.",
"~.~.~.c $           ] !.v.4 h A.!.|   $.!.g.  H s     $ h ~.~.~.",
"~.~.~.~.h @         ] !.f.  c A.K.J   F J.h.8 L $     s ~.~.~.~.",
"~.~.~.~.~.s @       ) c.L   s k.t.$   $ -.k...b     s ~.~.~.~.~.",
"~.~.~.~.~.~.s $     4 8       s $         g s   $ s ~.~.~.~.~.~.",
"~.~.~.~.~.~.~.h 3 @                           4 h ~.~.~.~.~.~.~.",
"~.~.~.~.~.~.~.~.~.f 4 @                 @ 4 f ~.~.~.~.~.~.~.~.~.",
"~.~.~.~.~.~.~.~.~.~.~.h s 3 4 - - 4 8 s h ~.~.~.~.~.~.~.~.~.~.~.",
"~.~.~.~.~.~.~.~.~.~.~.~.~.~.~.~.~.~.~.~.~.~.~.~.~.~.~.~.~.~.~.~."
};
