/* XPM */
static char *e672e734550949dac9650527ac03fb58[] = {
/* columns rows colors chars-per-pixel */
"16 16 75 1 ",
"  c black",
". c #010101010101",
"X c #020202020202",
"o c #030303030202",
"O c #050505050303",
"+ c #040404040404",
"@ c gray2",
"# c #070707070505",
"$ c #060606060606",
"% c #070707070707",
"& c #080807070505",
"* c #0F0F0C0C0707",
"= c gray3",
"- c #080808080909",
"; c #090909090909",
": c gray4",
"> c #0B0B0B0B0B0B",
", c #0B0B0B0B0C0C",
"< c #0C0C0C0C0C0C",
"1 c gray5",
"2 c #161611110909",
"3 c #151513130C0C",
"4 c #0F0F10101010",
"5 c #181818181818",
"6 c #21211A1A0F0F",
"7 c #22221F1F1313",
"8 c #262622221515",
"9 c #262625251919",
"0 c #31312C2C1B1B",
"q c #383832321F1F",
"w c #222222222323",
"e c #282829292929",
"r c #2C2C2C2C2D2D",
"t c #353531312020",
"y c #303031313131",
"u c gray20",
"i c #343434343434",
"p c #373737373737",
"a c #363637373838",
"s c #3F3F40404040",
"d c #414141414141",
"f c #444445454545",
"g c #444445454646",
"h c #454545454646",
"j c #464646464747",
"k c #484848484949",
"l c #555556565656",
"z c #7A7A6B6B4242",
"x c #797970704949",
"c c #7D7D73734B4B",
"v c #5F5F60606060",
"b c #606060606161",
"n c #646465656666",
"m c #666667676868",
"M c #6C6C6C6C6D6D",
"N c #747474747575",
"B c #757576767676",
"V c #767677777777",
"C c #777777777777",
"Z c #8A8A76764848",
"A c #868687878787",
"S c #929292929393",
"D c #9A9A9A9A9A9A",
"F c #9C9C9C9C9D9D",
"G c #9E9E9F9F9F9F",
"H c #9F9F9F9F9F9F",
"J c #A4A4A4A4A5A5",
"K c #A9A9AAAAABAB",
"L c #ABABACACACAC",
"P c #ACACADADADAD",
"I c #ADADADADAEAE",
"U c #B2B2B3B3B3B3",
"Y c #BBBBBBBBBBBB",
"T c #BBBBBBBBBCBC",
"R c None",
/* pixels */
"RRRRRRR<,RRRRRRR",
"RRRR:$ &$ $:RRRR",
"RRR$   q7   $RRR",
"RR$    82    $RR",
"R:     0t+    :R",
"R$     zc     $R",
"R     *Zx      R",
"<     269&     :",
"<  <gjwnald    <",
"R  uJDnAIbL$   <",
"R$ :iKVVIjY<  $R",
"R:   HMVJfY4  :R",
"RR$  FbCSyUe:$RR",
"RRR$ d5ir$jw$RRR",
"RRRR:      :RRRR",
"RRRRRR<::<RRRRRR"
};
